<svg width="879" height="874" viewBox="0 0 879 874" fill="none" xmlns="http://www.w3.org/2000/svg">
<g clip-path="url(#clip0_2003_811)">
<path d="M195.578 235.091L402.683 201.838C434.719 196.946 439.601 173.322 418.274 151.347L294.838 23.376C277.066 4.95589 255.061 8.21807 243.385 31.5271L165.218 191.127C151.272 219.292 162.894 239.985 195.578 235.091ZM-11.2311 822.566C-26.4565 837.791 -26.8116 862.706 -11.6239 877.893C3.56383 893.081 28.8013 893.049 44.0267 877.824L207.287 714.564C349.495 572.356 392.449 369.767 329.622 153.396C322.212 127.199 297.955 121.081 278.857 127.899C261.055 134.715 247.768 152.525 254.211 175.165C310.274 366.632 272.857 538.477 152.029 659.306L-11.2311 822.566ZM631.177 670.691C625.962 703.053 646.976 714.997 675.143 701.052L834.42 622.561C858.05 611.207 861.313 589.203 843.216 571.754L714.921 447.994C692.626 426.347 669.322 431.549 664.432 463.587L631.177 670.691ZM44.0267 877.824L207.287 714.564C328.115 593.735 499.96 556.319 691.426 612.381C714.068 618.825 731.556 605.216 738.372 587.413C745.188 568.314 739.394 544.38 713.197 536.971C496.503 473.822 294.237 517.098 152.029 659.306L-11.2311 822.566C-26.4565 837.791 -26.8116 862.706 -11.6239 877.893C3.56383 893.081 28.8013 893.049 44.0267 877.824Z" fill="white"/>
</g>
<defs>
<clipPath id="clip0_2003_811">
<rect width="858.075" height="822.329" fill="white" transform="translate(271.474) rotate(45)"/>
</clipPath>
</defs>
</svg>
